<svg xmlns="http://www.w3.org/2000/svg" viewBox="0 0 360 300" role="img" aria-label="GitHub technology tile">
  <defs><linearGradient id="b" x1="0" y1="0" x2="1" y2="1"><stop stop-color="#1c2634"/><stop offset="1" stop-color="#060a10"/></linearGradient><filter id="s"><feDropShadow dx="0" dy="18" stdDeviation="14" flood-color="#060a10" flood-opacity=".28"/></filter></defs>
  <g filter="url(#s)"><path d="M66 78 180 26l114 52v110l-114 58L66 188Z" fill="url(#b)"/><path d="M66 78 180 132l114-54M180 132v114" fill="none" stroke="#9aa7b2" stroke-width="4" opacity=".5"/><path fill="#fff" d="M180 83c-34 0-62 28-62 62 0 27 18 50 42 58 3 .5 4-1.3 4-3v-16c-17 4-21-7-21-7-3-7-7-9-7-9-6-4 1-4 1-4 7 0 11 7 11 7 6 10 16 7 20 5 .6-4 2-7 4-9-14-2-28-7-28-31 0-7 2-12 7-17-.7-2-3-8 .7-17 0 0 6-2 18 7 5-1 11-2 16-2s11 .7 16 2c12-9 18-7 18-7 4 9 1 15 .7 17 4 5 7 10 7 17 0 24-14 29-28 31 3 2 5 7 5 13v19c0 2 1 4 4 3 24-8 42-31 42-58 0-34-28-62-62-62Z"/></g>
</svg>
